<svg xmlns="http://www.w3.org/2000/svg" width="261.172" height="256.819" viewBox="0 0 261.172 256.819">
  <g id="github" transform="translate(-1484 -70)">
    <path id="Path_5" data-name="Path 5" d="M0,131.661C0,58.945,58.475,0,130.587,0S261.172,58.945,261.172,131.661a131.584,131.584,0,0,1-89.228,124.915c-6.619,1.293-8.97-2.813-8.97-6.317,0-1.437.016-3.958.039-7.327.045-6.79.112-17.029.112-28.8,0-12.284-4.174-20.3-8.857-24.382,29.079-3.26,59.628-14.394,59.628-64.963a51.089,51.089,0,0,0-13.439-35.339c1.355-3.316,5.828-16.707-1.28-34.842,0,0-10.951-3.539-35.876,13.5a122.894,122.894,0,0,0-65.4,0C72.947,51.063,61.981,54.6,61.981,54.6,54.89,72.737,59.36,86.128,60.716,89.445a51.186,51.186,0,0,0-13.455,35.339c0,50.449,30.491,61.738,59.5,65.068-3.734,3.288-7.119,9.1-8.291,17.605-7.451,3.364-26.354,9.184-38-10.944,0,0-6.9-12.639-20.018-13.568,0,0-12.741-.168-.893,8,0,0,8.559,4.046,14.5,19.264,0,0,7.666,23.5,44,15.535.03,5.979.08,11.773.119,16.32.033,3.819.058,6.759.058,8.192,0,3.478-2.4,7.552-8.922,6.334A131.6,131.6,0,0,1,0,131.661Zm49.845,56.474c-.287.648-1.306.842-2.234.4-.945-.425-1.476-1.308-1.17-1.958.281-.667,1.3-.852,2.245-.405C49.634,186.593,50.173,187.485,49.845,188.134Zm5.279,5.886c-.622.576-1.837.309-2.661-.6-.853-.908-1.012-2.124-.382-2.709s1.82-.306,2.674.6S55.774,193.438,55.125,194.02Zm5.139,7.51c-.8.555-2.1.034-2.912-1.124s-.8-2.55.017-3.107,2.1-.056,2.914,1.094C61.08,199.572,61.08,200.962,60.264,201.53Zm7.041,7.256c-.714.789-2.236.576-3.35-.5-1.14-1.051-1.457-2.543-.74-3.331s2.253-.568,3.376.5C67.721,206.5,68.067,208.006,67.3,208.786Zm9.713,4.207c-.315,1.021-1.781,1.485-3.257,1.051s-2.439-1.643-2.141-2.675,1.779-1.511,3.266-1.047C76.358,210.767,77.324,211.954,77.018,212.993Zm10.667.785c.037,1.076-1.215,1.967-2.765,1.986-1.558.035-2.819-.835-2.836-1.893,0-1.086,1.224-1.969,2.782-1.995S87.685,212.709,87.685,213.777Zm9.927-1.7c.185,1.049-.892,2.126-2.431,2.413-1.513.277-2.913-.371-3.106-1.412-.188-1.075.909-2.153,2.42-2.43C96.036,210.384,97.415,211.015,97.612,212.081Z" transform="translate(1484 70)" fill="#f9855b" fill-rule="evenodd"/>
  </g>
</svg>
