<svg xmlns="http://www.w3.org/2000/svg" width="223.828" height="223.828" viewBox="0 0 223.828 223.828">
  <g id="icon-1" transform="translate(-55 -76)">
    <path id="Path_1" data-name="Path 1" d="M111.914,223.828A111.914,111.914,0,1,0,0,111.914,111.914,111.914,0,0,0,111.914,223.828ZM84.3,53.746c2.16-4.326,4.238-5.859,7.2-5.78h0a8.894,8.894,0,0,1,1.338.122A8.684,8.684,0,0,1,98.1,51.866,71.546,71.546,0,0,1,105.2,63.2c3.485,6.551,8.677,21.642,12.183,31.832.443,1.285.858,2.492,1.24,3.595l-4.321-.395c-1.116,0-2.256-.113-3.4-.225-2.983-.293-5.992-.589-8.666,1.1a10.323,10.323,0,0,0-2.939,3.66,26.556,26.556,0,0,0-2-1.9,13.872,13.872,0,0,0-2.186-1.521c-.121-.051-.221-.091-.31-.127s-.182-.074-.266-.11l-1.292-3.6c-2.744-7.643-5.862-16.323-7.41-20.826-1.214-3.7-2.124-7.408-3.034-11.111l-.055-.224A23.96,23.96,0,0,1,84.3,53.746Zm59.018.782a11.245,11.245,0,0,1,6.177-3.112,5.622,5.622,0,0,1,5.015,2.327,12.327,12.327,0,0,1,2.8,9.6,86.63,86.63,0,0,1-3.635,14.58l-.078.251c-1.48,4.147-4.179,11.442-6.493,17.693-.775,2.094-1.508,4.072-2.135,5.775-6.075-.831-14.851-1.89-18.3-2.245l-1.285-.122c-1.117-.107-2.544-.244-3.98-.377.05-.137.1-.271.156-.4a7.386,7.386,0,0,0,.257-.714c2.474-7.274,7.889-21.734,11.6-28.427,2.164-4.36,4.638-9.02,8.04-12.8a4.061,4.061,0,0,1,1.34-1.577C142.982,54.829,143.161,54.679,143.318,54.528ZM87.3,102.182a4.742,4.742,0,0,1,1.063-.082c2.387.058,4.061,1.819,5.514,3.6,4.023,4.943,15.139,21.484,15.139,26.346a3.5,3.5,0,0,1-.263,1.317,10.713,10.713,0,0,1-5.364,5.647c-3.1,1.283-5.44-1.069-7.461-3.1-.355-.358-.7-.706-1.039-1.022-1.325-1.333-2.663-2.686-3.975-4.04-.164-.171-.333-.343-.5-.516l-.16-.162c-4.74-4.965-9.077-10.207-11.24-14.259-.165-.394-.353-.751-.54-1.106a6.8,6.8,0,0,1-1.009-3.552v-.286a6,6,0,0,1,1.175-3.529c.058-.066.112-.133.166-.2a3.582,3.582,0,0,1,.234-.276A15.165,15.165,0,0,1,87.3,102.182Zm26.692.715h0c1.482.13,3.106.26,4.829.4,9.781.782,22.735,1.817,30.888,4.546.767.288,1.453.576,2.139.863.7.294,1.4.588,2.185.88a9.4,9.4,0,0,1,4.314,4.2c.314.913.589,1.84.813,2.768.224,1.1.41,2.221.538,3.316.176,2.842.176,5.991.176,7.831l0,.036c-.025.631-.05,1.273-.1,1.915a51.1,51.1,0,0,1-3.712,16.863c-4.638,10.754-12.067,19.191-23.2,24.42a47.618,47.618,0,0,1-17.939,4.645A52.516,52.516,0,0,1,89.865,172.1c-10.513-4.076-21.03-14.25-24.128-23.553a30.5,30.5,0,0,1-1.552-13.952,13.639,13.639,0,0,1,6.6-9.972c4.667-2.148,11.868,4.93,14.574,7.589.287.283.524.516.7.683a42.688,42.688,0,0,1,8.354,11.064c.31.569.624,1.154.934,1.734.3,1.747-.01,2.912-1.863,3.779a7.681,7.681,0,0,1-6.187,0,19.292,19.292,0,0,1-6.99-5.157c-.8-.9-1.52-1.8-2.239-2.708-.671-.845-1.343-1.692-2.084-2.534a2.914,2.914,0,0,0-.617-.713,2.834,2.834,0,0,1-.621-.723c-1.549,1.448-1.549,2.613-.611,4.943.3,2.315,1.85,4.646,3.4,6.678a23.76,23.76,0,0,0,12.553,8.068c2.787.568,5.876.584,8.353-1.165,3.086-2.029,4.638-5.226,3.713-8.722a.993.993,0,0,0-.118-.385,1.777,1.777,0,0,1-.2-.78c-.128-.3-.277-.6-.429-.915l-.034-.071c2.013.168,4.388.061,5.966-.925a14.435,14.435,0,0,0,3.162-2.425,31.649,31.649,0,0,0-.851,4.576,21.3,21.3,0,0,0,.314,4.36,21.493,21.493,0,0,0,2.176,7.56,9.221,9.221,0,0,0,6.488,4.359,8.736,8.736,0,0,0-.313-4.076,13.6,13.6,0,0,0-1.223-3.767c-2.176-5.242-1.251-10.185,1.536-14.831a32.237,32.237,0,0,1,17.014-13.678,38.637,38.637,0,0,0,5.265-2.02c.925-.3,1.85-.879,1.549-2.045-.311-1.451-.628-2.613-2.164-2.9a21.291,21.291,0,0,0-4.337-.3c-6.5,0-12.991,0-19.19-1.165a22.237,22.237,0,0,1-7.726-2.9,10.745,10.745,0,0,1-1.687-1.436c-.6-1.059-1.213-2.081-1.84-3.042a9.63,9.63,0,0,1-.5-3.973c0-1.735,1.239-2.611,2.787-3.194A22.831,22.831,0,0,1,113.994,102.9Zm.938,26.023a14.544,14.544,0,0,0-2.728-5.966,56.8,56.8,0,0,0,12.915,2.032l-.465.329c-3.52,2.483-6.75,4.762-9.111,8.1l-.95,1.157A16.02,16.02,0,0,0,114.933,128.92Z" transform="translate(55 76)" fill="#f9855b" fill-rule="evenodd"/>
  </g>
</svg>
