<svg id="insta" xmlns="http://www.w3.org/2000/svg" width="222.969" height="222.969" viewBox="0 0 222.969 222.969">
  <path id="Path_6" data-name="Path 6" d="M0,111.484A111.484,111.484,0,1,1,111.484,222.969,111.484,111.484,0,0,1,0,111.484Z" fill="#f9855b" fillRule="evenodd"/>
  <path id="Path_7" data-name="Path 7" d="M66,6.533c-16.149,0-18.174.071-24.517.359A43.633,43.633,0,0,0,27.049,9.655a29.115,29.115,0,0,0-10.533,6.856A29.188,29.188,0,0,0,9.654,27.043,43.431,43.431,0,0,0,6.891,41.474c-.284,6.343-.358,8.37-.358,24.519S6.605,84.16,6.893,90.5a43.692,43.692,0,0,0,2.762,14.431,29.133,29.133,0,0,0,6.858,10.533,29.107,29.107,0,0,0,10.529,6.863,43.657,43.657,0,0,0,14.434,2.762c6.342.288,8.368.359,24.515.359s18.17-.071,24.511-.359a43.687,43.687,0,0,0,14.439-2.762,30.466,30.466,0,0,0,17.388-17.394A44.081,44.081,0,0,0,125.09,90.5c.285-6.342.36-8.364.36-24.511s-.075-18.175-.36-24.517a44.059,44.059,0,0,0-2.762-14.431,29.193,29.193,0,0,0-6.863-10.533,29.063,29.063,0,0,0-10.53-6.856A43.769,43.769,0,0,0,90.493,6.893c-6.342-.289-8.361-.359-24.514-.359ZM60.663,17.249c1.583,0,3.349,0,5.334,0,15.876,0,17.758.057,24.026.342a32.924,32.924,0,0,1,11.04,2.048,18.39,18.39,0,0,1,6.832,4.447,18.452,18.452,0,0,1,4.45,6.838,32.849,32.849,0,0,1,2.047,11.037c.285,6.268.347,8.151.347,24.019S114.678,83.73,114.393,90a32.89,32.89,0,0,1-2.047,11.037,19.717,19.717,0,0,1-11.282,11.277,32.8,32.8,0,0,1-11.04,2.049c-6.268.285-8.15.346-24.026.346s-17.758-.061-24.026-.346a32.983,32.983,0,0,1-11.041-2.051,18.415,18.415,0,0,1-6.838-4.447,18.427,18.427,0,0,1-4.45-6.834,32.853,32.853,0,0,1-2.048-11.037c-.285-6.268-.342-8.151-.342-24.029s.057-17.751.342-24.019a32.918,32.918,0,0,1,2.048-11.039,18.423,18.423,0,0,1,4.45-6.838,18.451,18.451,0,0,1,6.838-4.45,32.849,32.849,0,0,1,11.041-2.05c5.485-.248,7.61-.322,18.692-.334Zm37.073,9.873a7.134,7.134,0,1,0,7.135,7.132,7.134,7.134,0,0,0-7.135-7.132ZM66,35.459a30.532,30.532,0,1,0,30.53,30.535A30.536,30.536,0,0,0,66,35.459Zm0,10.714a19.82,19.82,0,1,1-19.82,19.82A19.82,19.82,0,0,1,66,46.173Z" transform="translate(45.493 45.493)" fill="#f2f2f2" fillRule="evenodd"/>
</svg>
