<svg xmlns="http://www.w3.org/2000/svg" width="224.181" height="213.972" viewBox="0 0 224.181 213.972">
  <g id="linkedin" transform="translate(-758 -55)">
    <path id="Path_3" data-name="Path 3" d="M54.057,24.937C53.745,10.782,43.622,0,27.184,0S0,10.782,0,24.937C0,38.8,10.429,49.892,26.561,49.892h.307C43.622,49.892,54.057,38.8,54.057,24.937ZM50.892,69.6H2.841V213.971H50.892Zm117.964-3.393c31.619,0,55.325,20.639,55.325,64.984l0,82.779H176.13v-77.24c0-19.4-6.953-32.64-24.348-32.64-13.275,0-21.182,8.925-24.654,17.545-1.271,3.09-1.582,7.393-1.582,11.708v80.63H77.489s.633-130.825,0-144.372h48.057V90.049C131.923,80.218,143.345,66.206,168.856,66.206Z" transform="translate(758 55)" fill="#f9855b" fill-rule="evenodd"/>
  </g>
</svg>
