<svg xmlns="http://www.w3.org/2000/svg" width="227.531" height="227.531" viewBox="0 0 227.531 227.531">
  <g id="medium" transform="translate(-1119 -85)">
    <path id="Path_4" data-name="Path 4" d="M0,0H227.531V227.531H0ZM52.371,71.1A5.921,5.921,0,0,1,54.3,76.095v67.559a7.774,7.774,0,0,1-2.069,6.706L36.172,169.836V172.4H81.7v-2.569L65.644,150.36a8.059,8.059,0,0,1-2.212-6.706V85.227L103.393,172.4h4.638l34.325-87.178v69.486c0,1.854,0,2.211-1.213,3.424L128.8,170.122v2.568H188.74v-2.568l-11.917-11.7A3.567,3.567,0,0,1,175.467,155V69.032a3.567,3.567,0,0,1,1.356-3.424l12.2-11.7V51.34H146.78l-30.114,75.121L82.413,51.34H38.1v2.568Z" transform="translate(1119 85)" fill="#f9855b" fill-rule="evenodd"/>
  </g>
</svg>
