<?xml version="1.0" standalone="no"?>
<!DOCTYPE svg PUBLIC "-//W3C//DTD SVG 20010904//EN"
 "http://www.w3.org/TR/2001/REC-SVG-20010904/DTD/svg10.dtd">
<svg version="1.0" xmlns="http://www.w3.org/2000/svg"
 width="316.000000pt" height="316.000000pt" viewBox="0 0 316.000000 316.000000"
 preserveAspectRatio="xMidYMid meet">
<metadata>
Created by potrace 1.11, written by Peter Selinger 2001-2013
</metadata>
<g transform="translate(0.000000,316.000000) scale(0.100000,-0.100000)"
fill="#000000" stroke="none">
<path d="M780 2625 c-8 -2 -49 -8 -90 -15 -240 -37 -462 -171 -563 -341 -51
-87 -87 -211 -78 -274 1 -7 95 -10 268 -10 l267 0 3 35 c14 134 153 222 327
207 176 -16 256 -115 259 -322 l2 -99 -190 -2 c-104 0 -212 -4 -240 -8 -27 -3
-65 -8 -82 -10 -121 -15 -280 -67 -375 -123 -135 -79 -237 -218 -272 -371 -18
-78 -14 -259 7 -322 68 -206 225 -348 454 -412 103 -28 294 -30 398 -4 107 27
221 91 287 161 24 25 30 28 38 15 5 -8 10 -23 10 -32 0 -10 9 -42 21 -73 l20
-55 275 0 c305 0 288 -5 254 72 -53 121 -60 217 -65 918 -2 400 -6 506 -18
550 -54 202 -146 316 -338 423 -49 28 -191 73 -259 83 -48 7 -295 14 -320 9z
m394 -1307 c-1 -95 -2 -178 -3 -184 -2 -24 -108 -118 -158 -141 -113 -52 -259
-61 -339 -23 -56 28 -110 89 -124 141 -15 55 -5 152 21 206 11 23 37 56 57 74
80 70 183 96 398 98 l150 2 -2 -173z"/>
<path d="M2849 2611 c-102 -29 -218 -118 -294 -225 l-20 -28 -4 88 c-2 49 -4
101 -5 117 l0 27 -86 0 c-126 1 -360 1 -397 1 l-33 -1 0 -1010 0 -1010 270 0
270 0 0 662 0 663 31 45 c46 66 90 99 172 129 67 24 83 26 235 25 l162 0 1
150 c0 83 2 195 3 250 2 105 -5 124 -47 128 -100 7 -210 2 -258 -11z"/>
</g>
</svg>
